<?xml version="1.0" encoding="UTF-8"?>
<!DOCTYPE svg PUBLIC "-//W3C//DTD SVG 1.1//EN" "http://www.w3.org/Graphics/SVG/1.1/DTD/svg11.dtd">
<!-- Creator: CorelDRAW 2020 (64 Bit) -->
<svg xmlns="http://www.w3.org/2000/svg" xml:space="preserve" width="91.44mm" height="90.8472mm" version="1.1" style="shape-rendering:geometricPrecision; text-rendering:geometricPrecision; image-rendering:optimizeQuality; fill-rule:evenodd; clip-rule:evenodd"
viewBox="0 0 9144 9084.72"
 xmlns:xlink="http://www.w3.org/1999/xlink"
 xmlns:xodm="http://www.corel.com/coreldraw/odm/2003">
 <defs>
  <style type="text/css">
   <![CDATA[
    .str2 {stroke:#406E37;stroke-width:52.92;stroke-miterlimit:22.9256}
    .str1 {stroke:white;stroke-width:52.92;stroke-miterlimit:22.9256}
    .str0 {stroke:black;stroke-width:20;stroke-miterlimit:22.9256}
    .fil10 {fill:none}
    .fil8 {fill:#2D6E38}
    .fil21 {fill:#316C34}
    .fil0 {fill:#43464B}
    .fil22 {fill:#504F5F}
    .fil6 {fill:#657751}
    .fil19 {fill:#688332}
    .fil9 {fill:#6D9040}
    .fil1 {fill:#87BD83}
    .fil15 {fill:#9C5424}
    .fil7 {fill:#A1D099}
    .fil3 {fill:#A8D9A1}
    .fil13 {fill:#C58337}
    .fil14 {fill:#D99C5D}
    .fil11 {fill:#D9CEC8}
    .fil5 {fill:#D9E5E5}
    .fil4 {fill:#DDE0E5}
    .fil18 {fill:#EB6274}
    .fil12 {fill:#EF2B43}
    .fil16 {fill:#F1AA40}
    .fil20 {fill:#F5C57D}
    .fil2 {fill:white}
    .fil17 {fill:black;fill-rule:nonzero}
   ]]>
  </style>
 </defs>
 <g id="Camada_x0020_1">
  <metadata id="CorelCorpID_0Corel-Layer"/>
  <path class="fil0" d="M2348.01 7931.86c64.87,578.32 -244.21,769.41 -656.43,826.72 1.24,49.48 4.76,98.93 10.07,147.81l582.09 -2.65 18.52 -248.71 3899.98 -15.88 37.04 275.17 627.04 -5.2c5.18,-121.19 0.39,-238.59 -15.91,-347.79 -10.49,-70.25 -25.74,-137.1 -46.16,-199.39 -77.68,-236.87 -230.23,-407.65 -480.3,-447.75 -90.88,-9.66 -126.18,-40.51 -132.39,-93.82l-1898.77 1.04c-49.39,22.93 -87.73,44.71 -96.1,90.13l-406.04 1.87c-197.64,-260.42 -311.9,-443.41 -382.54,-583.87 -242.44,-584.95 -455.07,-498.97 -532.45,-463.72 -93.48,42.57 -163.8,186.3 -503.27,1065.66l-24.38 0.38zm754.75 -876.39c0,67.96 -55.08,123.04 -123.04,123.04 -67.95,0 -123.03,-55.08 -123.03,-123.04 0,-67.95 55.08,-123.03 123.03,-123.03 67.96,0 123.04,55.08 123.04,123.03z"/>
  <path class="fil1" d="M2404.97 7723c-13.79,70.58 -32.89,140.4 -56.96,208.86l24.38 -0.38c10.61,-67.64 21.42,-137.27 32.58,-208.48z"/>
  <g id="_1706207692816">
   <path class="fil1" d="M9144 2599.37c-105.3,116.24 -165.98,206.18 -160.23,322.57 26.76,542.03 -397.38,557.17 -620.95,396.21 127.73,-400.01 400.62,-624.5 781.18,-718.78l0 -35.29 0 -2559.85 -1968.65 0c-524.38,832.37 -1445.33,805.13 -1918.24,0l-4733.8 0c-140.6,198.06 -318.04,312.39 -523.31,363.45l0 5251.98c153.31,-4.41 280.55,189.25 400.4,304.27 -0.33,-329.91 -5.18,-795.97 -3.1,-1097.59 0.31,-45.56 -72.51,-35.76 -114.47,-36.06 -216.44,-1.59 -219.85,-300.59 -50.11,-318.28l1045.11 0c168.46,12.73 141.5,347.3 7.2,336.07 -46.17,-3.86 -132.11,-20.39 -133.53,14.9 -23.05,572.53 -14.87,790.22 -3.76,1218.9 871.08,251.2 1247.82,786.21 1280.99,1333.86 4.92,81.24 2.28,162.75 -7.43,243.66 171.07,-1077.61 434.73,-2461.67 1268.21,-2838.79 -100.14,-276.16 11.74,-623.19 459.86,-733.5l-144.69 -712.2c-121.83,-22.64 -147.73,-96.06 -89.65,-213.96 -6.2,-45.65 2.46,-80.32 37.08,-84.94l-247.7 -439.92 1195.92 -232.83 -27.45 507.62c29.98,-6.49 42.69,19.31 46.15,59.77 105.21,91.72 107.55,167.87 -20.06,224.34l493.04 2528.65c156.68,7.31 167.83,189.26 41.42,212.44 31.23,187.11 31.74,275.13 -81.08,300.04 -193.01,42.61 -426.29,113.67 -648.57,126.86 -92.04,5.46 -142.14,-142.39 -164.64,-241.69l-3.22 -20.36c-141.14,34.95 -164.17,-172 -32.31,-204.06l-115.29 -728.08c-101.88,27.44 -196.65,30.06 -281.96,13.69 -692.74,586.56 -798.62,1817.81 -698.25,2187.07 70.64,140.46 184.9,323.45 382.54,583.87l406.04 -1.87c8.37,-45.42 46.71,-67.2 96.1,-90.13 -102.3,-107.59 -119.46,-261.42 24.31,-390.18l1719.49 2.52 -98.4 -1065.23c-32.74,-30.2 -13.67,-63.7 -98.22,-90.59 -8.31,0.15 -13.66,8.99 -19.62,14.02 -106.08,89.6 -157.33,-15.81 -154.95,-69.75 6.72,-152.42 -9.85,-268.09 8.15,-548.37 6.64,-103.43 341.57,-95.41 733.79,-84.66 424.96,-215.5 651.46,-426.57 930.89,-487.73 12.69,-83.69 46.05,-237.88 -82.85,-552.53 -540.17,-1318.52 -890.45,-1637.41 -762.8,-1504.93 314.92,326.84 443.59,553.05 962.49,1523.83 433.13,-159.47 854.41,-938.47 854.41,-938.47 27.37,28.52 -200.77,731.56 -775.04,1092.81l22.07 372.66 112.45 76.62 370.79 0c86.04,-2.6 87.34,146.31 0,148.12l0 61.08 234.1 -0.85 0 -66.84c-79.61,-1.84 -95.01,-129.55 0,-141.51l649.61 0c86.04,-2.6 87.34,146.31 0,148.12l0 57.89 220.54 -0.8 0 -1300.03c-451.86,303.25 -681.38,210.5 -756.92,-156.54l756.92 -134.5 0 -33.07c-271.59,-46.55 -514,14.21 -750.31,114.65 145.29,-301.87 393.37,-364.72 750.31,-178.6l0 -1089.18zm0 -35.29c-455.55,114.26 -724.75,391.41 -825.28,727.61 -202.88,-354.67 315.25,-818.33 825.28,-727.61zm-3214.07 771.52c-52.91,-97.31 -116.8,-180.13 -301.14,-237.92 205.05,-114.64 690.13,-22.05 886.36,277.82 -153.92,229.09 -415.34,272.53 -585.22,-39.9zm595.14 -14.12c-159.85,-206.53 -463.69,-371.41 -832.99,-279.19 469.64,-276.34 833,-2.3 832.99,279.19zm149.1 -284.46c-149.15,-624.55 850.28,-554.67 835.11,-474.74 -394.53,-40.05 -795.46,246.58 -835.11,474.74zm1035.32 368.83c20.87,-96.11 2.32,-207.11 -54.44,-343.47 261.21,168.38 440.68,370.31 460.82,668.08 -266.93,89.66 -461.57,-70.45 -406.38,-324.61zm446.07 265.07c-32.14,-293.15 -183.4,-475.62 -438.99,-610 524.1,143.73 579.37,354.53 438.99,610zm-1905 -970.1c-526.02,-176.27 -548.47,-801.21 -13.22,-1411.11 -330.73,642.35 -145.53,1068.63 13.22,1411.11zm85.99 6.61c-186.34,-262.89 -298.38,-1070.83 -30.86,-1422.13 -9.32,249.62 54.38,323.19 199.05,476.43 308.23,326.48 248.48,784.98 -168.19,945.7zm977.69 75.75c-40.48,411.54 -319.07,447.32 -608.19,285.8 118.81,-294.55 403.01,-447.77 762.88,-471.84 -84.74,44.39 -148.35,121.52 -154.69,186.04zm-6385.24 1348.61c66.86,0 121.06,57.02 121.06,127.35 0,70.33 -54.2,127.35 -121.06,127.35 -66.86,0 -121.06,-57.02 -121.06,-127.35 0,-70.33 54.2,-127.35 121.06,-127.35zm271.54 -854.63c0,95.53 -77.43,172.96 -172.93,172.96 -95.53,0 -172.96,-77.43 -172.96,-172.96 0,-95.5 77.43,-172.93 172.96,-172.93 95.5,0 172.93,77.43 172.93,172.93zm-643.56 173.22c149.63,0 270.92,121.29 270.92,270.92 0,149.63 -121.29,270.92 -270.92,270.92 -149.63,0 -270.92,-121.29 -270.92,-270.92 0,-149.63 121.29,-270.92 270.92,-270.92z"/>
   <path class="fil1" d="M6202.24 8639.15l-3899.98 15.88 -18.52 248.71 -582.09 2.65c-5.31,-48.88 -8.83,-98.33 -10.07,-147.81 -229.75,147.84 -502.5,241 -802.91,251.85 -9.62,0.35 -19.27,0.61 -28.95,0.79 -43.79,0.8 -93.16,0.09 -137.64,-1.67 -257.95,-10.25 -500.64,-54.34 -722.08,-124.96l0 204.36 9144 0 0 -527.62 -2293.59 0c16.3,109.2 21.09,226.6 15.91,347.79l-627.04 5.2 -37.04 -275.17z"/>
  </g>
  <g id="_1706207693920">
   <path class="fil2" d="M5433.43 5896.07l-897.51 164.85 3.22 20.36c22.5,99.3 72.6,247.15 164.64,241.69 222.28,-13.19 455.56,-84.25 648.57,-126.86 112.82,-24.91 112.31,-112.93 81.08,-300.04z"/>
   <polygon class="fil2" points="3747.09,2671.88 4895.76,2447.78 4900.33,2363.25 3704.41,2596.08 "/>
   <path class="fil2" d="M4872.88 2870.87c-60.07,13 -801.69,149.25 -920.77,165.13 -34.62,4.62 -43.28,39.29 -37.08,84.94l1004 -190.3c-3.46,-40.46 -16.17,-66.26 -46.15,-59.77z"/>
  </g>
  <path class="fil0" d="M5392.01 5683.63c-990.36,241.05 -1362.33,377.27 41.42,212.44 126.41,-23.18 115.26,-205.13 -41.42,-212.44z"/>
  <path class="fil1" d="M5757.3 177.25c19.48,0 35.27,15.79 35.27,35.27 0,19.48 -15.79,35.27 -35.27,35.27 -19.48,0 -35.27,-15.79 -35.27,-35.27 0,-19.48 15.79,-35.27 35.27,-35.27zm372.63 68.35c0,19.48 -15.8,35.28 -35.28,35.28 -19.48,0 -35.28,-15.8 -35.28,-35.28 0,-19.48 15.8,-35.28 35.28,-35.28 19.48,0 35.28,15.8 35.28,35.28zm255.76 77.16c-18.26,0 -33.07,-14.81 -33.07,-33.07 0,-18.26 14.81,-33.07 33.07,-33.07 18.26,0 33.07,14.81 33.07,33.07 0,18.26 -14.81,33.07 -33.07,33.07zm218.29 -113.55c0,-9.13 7.4,-16.53 16.53,-16.53 9.13,0 16.53,7.4 16.53,16.53 0,9.13 -7.4,16.53 -16.53,16.53 -9.13,0 -16.53,-7.4 -16.53,-16.53zm173.08 -43c-21.31,0 -38.58,-17.27 -38.58,-38.58 0,-21.31 17.27,-38.58 38.58,-38.58 21.31,0 38.58,17.27 38.58,38.58 0,21.31 -17.27,38.58 -38.58,38.58zm166.47 -88.19c-15.83,0 -28.66,-12.83 -28.66,-28.66 0,-15.83 12.83,-28.66 28.66,-28.66 15.83,0 28.66,12.83 28.66,28.66 0,15.83 -12.83,28.66 -28.66,28.66zm-1571.77 -73.79c466.96,656.8 1302.82,645.56 1666.88,0l-1666.88 0zm241.12 23.08c20.09,0 36.38,16.29 36.38,36.38 0,20.09 -16.29,36.38 -36.38,36.38 -20.09,0 -36.38,-16.29 -36.38,-36.38 0,-20.09 16.29,-36.38 36.38,-36.38zm883.06 187.41c-15.83,0 -28.66,-12.83 -28.66,-28.66 0,-15.83 12.83,-28.66 28.66,-28.66 15.83,0 28.66,12.83 28.66,28.66 0,15.83 -12.83,28.66 -28.66,28.66zm165.36 -105.84c-14.61,0 -26.45,-11.84 -26.45,-26.45 0,-14.61 11.84,-26.45 26.45,-26.45 14.61,0 26.45,11.84 26.45,26.45 0,14.61 -11.84,26.45 -26.45,26.45zm-108.03 201.76c0,-18.87 15.3,-34.17 34.17,-34.17 18.87,0 34.17,15.3 34.17,34.17 0,18.87 -15.3,34.17 -34.17,34.17 -18.87,0 -34.17,-15.3 -34.17,-34.17zm-280.03 -146.64c-19.48,0 -35.27,-15.79 -35.27,-35.27 0,-19.48 15.79,-35.27 35.27,-35.27 19.48,0 35.27,15.79 35.27,35.27 0,19.48 -15.79,35.27 -35.27,35.27zm-257.97 -84.87c0,15.22 -12.34,27.56 -27.56,27.56 -15.22,0 -27.56,-12.34 -27.56,-27.56 0,-15.22 12.34,-27.56 27.56,-27.56 15.22,0 27.56,12.34 27.56,27.56zm132.3 -27.56c0,9.74 -7.9,17.64 -17.64,17.64 -9.74,0 -17.64,-7.9 -17.64,-17.64 0,-9.74 7.9,-17.64 17.64,-17.64 9.74,0 17.64,7.9 17.64,17.64zm305.37 68.35c-15.22,0 -27.56,-12.34 -27.56,-27.56 0,-15.22 12.34,-27.56 27.56,-27.56 15.22,0 27.56,12.34 27.56,27.56 0,15.22 -12.34,27.56 -27.56,27.56z"/>
  <path class="fil3" d="M-0 367.68c205.27,-51.06 382.71,-165.39 523.31,-363.45l-92.6 0c-143.57,158.51 -287.14,239.5 -430.71,268.64l0 94.81z"/>
  <path class="fil1" d="M-0 272.87c143.57,-29.14 287.14,-110.13 430.71,-268.64l-430.71 0 0 268.64z"/>
  <polygon class="fil0" points="5392.01,5683.63 4503.61,5856.86 4535.92,6060.92 5433.43,5896.07 "/>
  <path class="fil2" d="M5433.43 5896.07l-897.51 164.85 3.22 20.36c22.5,99.3 72.6,247.15 164.64,241.69 222.28,-13.19 455.56,-84.25 648.57,-126.86 112.82,-24.91 112.31,-112.93 81.08,-300.04z"/>
  <g id="_1706207690512">
   <path class="fil4" d="M2875.66 6865.82c77.38,-35.25 290.01,-121.23 532.45,463.72 -100.37,-369.26 5.51,-1600.51 698.25,-2187.07 -203.48,-39.05 -353.11,-186.11 -416.85,-361.87 -833.48,377.12 -1097.14,1761.18 -1268.21,2838.79 -4.15,34.67 -9.61,69.23 -16.33,103.61 -11.16,71.21 -21.97,140.84 -32.58,208.48 339.47,-879.36 409.79,-1023.09 503.27,-1065.66z"/>
   <path class="fil4" d="M3102.76 7055.47c0,-67.95 -55.08,-123.03 -123.04,-123.03 -67.95,0 -123.03,55.08 -123.03,123.03 0,67.96 55.08,123.04 123.03,123.04 67.96,0 123.04,-55.08 123.04,-123.04z"/>
  </g>
  <path class="fil0" d="M4106.36 5142.47c85.31,16.37 180.08,13.75 281.96,-13.69 629.55,-309.32 422.67,-1072.22 -238.95,-1081.68 -448.12,110.31 -560,457.34 -459.86,733.5 63.74,175.76 213.37,322.82 416.85,361.87zm98.18 -723.38c103.75,0 187.85,84.1 187.85,187.85 0,103.75 -84.1,187.85 -187.85,187.85 -103.75,0 -187.85,-84.1 -187.85,-187.85 0,-103.75 84.1,-187.85 187.85,-187.85z"/>
  <path class="fil4" d="M4388.32 5128.78l115.29 728.08 888.4 -173.23 -493.04 -2528.65 -894.29 179.92 144.69 712.2c661.62,9.46 868.5,772.36 238.95,1081.68z"/>
  <path class="fil5" d="M-0 7364.43l6.4 0.52c298.69,117.61 768.3,466.94 993.12,516.29 286.67,62.85 729.81,-54.11 1070.58,-240.08 144.54,-78.88 270.67,-170.17 358.63,-265.43 -33.17,-547.65 -409.91,-1082.66 -1280.99,-1333.86 -5.5,-212.14 -10.28,-372.62 -10.91,-549.99 -2.6,-179.27 -4.95,-376.35 -9.58,-664.5 -0.78,-48.51 111.62,-23.17 157.78,-19.31 134.3,11.22 161.26,-323.34 -7.2,-336.07l-1029.67 0c-167.4,17.45 -181.41,308.49 25.83,318.05 2.9,0.13 5.85,0.21 8.84,0.23 41.95,0.3 114.78,-9.5 114.47,36.06 -2.08,301.62 2.77,767.68 3.1,1097.59 0.04,41.69 0.01,81.21 -0.11,117.94 -6.95,1.76 -13.88,3.52 -20.78,5.3 -135.64,34.89 -262.03,73.28 -379.51,114.75l0 3.56 0 1198.95zm1185.84 -484.5c97.33,0 176.24,78.91 176.24,176.24 0,97.33 -78.91,176.24 -176.24,176.24 -97.33,0 -176.24,-78.91 -176.24,-176.24 0,-97.33 78.91,-176.24 176.24,-176.24zm-544.48 -1599.99c-96.5,0 -174.73,-82.29 -174.73,-183.81 0,-39.79 12.02,-76.63 32.45,-106.72 31.69,-46.67 83.61,-77.09 142.28,-77.09 96.5,0 174.73,82.29 174.73,183.81 0,58.49 -25.97,110.59 -66.43,144.26 -29.77,24.76 -67.4,39.55 -108.3,39.55z"/>
  <path class="fil1" d="M1027.59 3375.08c54.07,0 97.9,-43.83 97.9,-97.9 0,-54.07 -43.83,-97.9 -97.9,-97.9 -54.07,0 -97.9,43.83 -97.9,97.9 0,54.07 43.83,97.9 97.9,97.9z"/>
  <g id="_1706207685664">
   <polygon class="fil2" points="3747.09,2671.88 4895.76,2447.78 4900.33,2363.25 3704.41,2596.08 "/>
   <path class="fil2" d="M4872.88 2870.87c-60.07,13 -801.69,149.25 -920.77,165.13 -34.62,4.62 -43.28,39.29 -37.08,84.94l1004 -190.3c-3.46,-40.46 -16.17,-66.26 -46.15,-59.77z"/>
  </g>
  <g id="_1706207685088">
   <path class="fil6" d="M166.9 6734.44c0,65.91 -53.43,119.34 -119.34,119.34 -16.9,0 -32.99,-3.52 -47.56,-9.86l0 57.77c12.64,2.88 25.79,4.4 39.3,4.4 97.33,0 176.24,-78.91 176.24,-176.24 0,-97.33 -78.91,-176.24 -176.24,-176.24 -13.51,0 -26.66,1.52 -39.3,4.4l0 66.96c14.57,-6.34 30.66,-9.86 47.56,-9.86 65.91,0 119.34,53.43 119.34,119.33z"/>
   <path class="fil6" d="M1185.84 6879.93c-97.33,0 -176.24,78.91 -176.24,176.24 0,97.33 78.91,176.24 176.24,176.24 97.33,0 176.24,-78.91 176.24,-176.24 0,-97.33 -78.91,-176.24 -176.24,-176.24zm-111.07 180.83c0,-65.9 53.43,-119.33 119.33,-119.33 65.91,0 119.34,53.43 119.34,119.33 0,65.91 -53.43,119.34 -119.34,119.34 -65.9,0 -119.33,-53.43 -119.33,-119.34z"/>
   <path class="fil6" d="M854.65 3277.16c0,95.53 77.43,172.96 172.96,172.96 95.5,0 172.93,-77.43 172.93,-172.96 0,-95.5 -77.43,-172.93 -172.93,-172.93 -95.53,0 -172.96,77.43 -172.96,172.93zm172.94 97.92c-54.07,0 -97.9,-43.83 -97.9,-97.9 0,-54.07 43.83,-97.9 97.9,-97.9 54.07,0 97.9,43.83 97.9,97.9 0,54.07 -43.83,97.9 -97.9,97.9z"/>
  </g>
  <path class="fil7" d="M400.4 5923.93c-119.85,-115.02 -247.09,-308.68 -400.4,-304.27l0 63.94c156.38,21.66 214.31,157.97 379.51,363.57 6.9,-1.78 13.83,-3.54 20.78,-5.3 0.12,-36.73 0.15,-76.25 0.11,-117.94z"/>
  <path class="fil1" d="M379.51 6047.17c-165.2,-205.6 -223.13,-341.91 -379.51,-363.57l0 478.32c117.48,-41.47 243.87,-79.86 379.51,-114.75z"/>
  <g id="_1706207685424">
   <path class="fil2" d="M95.67 8021.73c0,-74.07 -38.05,-139.25 -95.67,-177.07l0 86.21c23.14,25.45 37.25,59.27 37.25,96.38 0,37.11 -14.11,70.93 -37.25,96.38l0 75.18c57.62,-37.82 95.67,-103.01 95.67,-177.08z"/>
   <path class="fil2" d="M563.11 8334.83c-116.9,0 -211.67,94.77 -211.67,211.66 0,64.3 28.67,121.9 73.93,160.72 4.31,3.45 8.65,6.88 13.01,10.31 34.98,25.56 78.09,40.64 124.73,40.64 116.89,0 211.66,-94.77 211.66,-211.67 0,-116.89 -94.77,-211.66 -211.66,-211.66z"/>
  </g>
  <path class="fil2" d="M4016.69 4606.94c0,103.75 84.1,187.85 187.85,187.85 103.75,0 187.85,-84.1 187.85,-187.85 0,-103.75 -84.1,-187.85 -187.85,-187.85 -103.75,0 -187.85,84.1 -187.85,187.85z"/>
  <g id="_1706207740336">
   <path class="fil8" d="M2070.1 7641.16c-340.77,185.97 -783.91,302.93 -1070.58,240.08 -226.43,-49.7 -701.18,-403.71 -999.52,-518.79l0 482.21c57.62,37.82 95.67,103 95.67,177.07 0,74.07 -38.05,139.26 -95.67,177.08 79.28,180.99 228.11,351.01 425.37,508.4 -45.26,-38.82 -73.93,-96.42 -73.93,-160.72 0,-116.89 94.77,-211.66 211.67,-211.66 116.89,0 211.66,94.77 211.66,211.66 0,116.9 -94.77,211.67 -211.66,211.67 -46.64,0 -89.75,-15.08 -124.73,-40.64 131.3,103.29 283.41,201.09 450.29,292.91 300.41,-10.85 573.16,-104.01 802.91,-251.85 -7.51,-299.27 68.17,-599.89 333.17,-784.56 44.92,-96.08 53.35,-150.79 45.35,-332.86z"/>
   <path class="fil8" d="M37.25 8027.25c0,-37.11 -14.11,-70.93 -37.25,-96.38l0 192.76c23.14,-25.45 37.25,-59.27 37.25,-96.38z"/>
  </g>
  <path class="fil8" d="M545.21 6507.17c26.42,202.78 129.83,343.98 332.65,405.68 55.6,-49.14 90.94,-122.83 90.94,-205.21 0,-147.95 -114.01,-267.89 -254.66,-267.89 -64.82,0 -123.98,25.47 -168.93,67.42z"/>
  <g id="_1706207739040">
   <path class="fil9" d="M556.98 3992.22c54.08,0 104.45,-15.84 146.74,-43.14 -247.32,-93.31 -317.09,-256.12 -293.9,-455.29 -74.48,48.28 -123.76,132.14 -123.76,227.51 0,149.63 121.29,270.92 270.92,270.92z"/>
   <path class="fil9" d="M857.88 4156.07c-30.26,23.15 -49.94,60.7 -49.94,103.07 0,70.33 54.2,127.35 121.06,127.35 20.71,0 40.2,-5.47 57.25,-15.11 -102.73,-37.32 -128.52,-122.12 -128.37,-215.31z"/>
   <path class="fil9" d="M749.66 5240.39c-109.91,-28.27 -199.47,-99.23 -250.58,-250.98 -20.43,30.09 -32.45,66.93 -32.45,106.72 0,101.52 78.23,183.81 174.73,183.81 40.9,0 78.53,-14.79 108.3,-39.55z"/>
   <path class="fil9" d="M877.86 6912.85c-202.82,-61.7 -306.23,-202.9 -332.65,-405.68 -52.59,49.08 -85.73,120.7 -85.73,200.47 0,147.96 114.01,267.9 254.66,267.9 62.34,0 119.45,-23.57 163.72,-62.69z"/>
   <path class="fil9" d="M2428.73 7375.73c-87.96,95.26 -214.09,186.55 -358.63,265.43 8,182.07 -0.43,236.78 -45.35,332.86 19.12,-13.31 39.22,-26.03 60.34,-38.1l262.92 -4.06c24.07,-68.46 43.17,-138.28 56.96,-208.86 5.36,-34.19 10.8,-68.74 16.33,-103.61 9.71,-80.91 12.35,-162.42 7.43,-243.66z"/>
   <path class="fil9" d="M425.37 8707.21c-197.26,-157.39 -346.09,-327.41 -425.37,-508.4l0 685.78c221.44,70.62 464.13,114.71 722.08,124.96 44.48,1.76 93.85,2.47 137.64,1.67 9.68,-0.18 19.33,-0.44 28.95,-0.79 -166.88,-91.82 -318.99,-189.62 -450.29,-292.91 -4.48,-3.27 -8.82,-6.71 -13.01,-10.31z"/>
  </g>
  <g id="_1706207738896">
   <ellipse class="fil10 str0" cx="714.14" cy="6707.64" rx="254.66" ry="267.89"/>
   <path class="fil8" d="M816.09 5096.13c0,-101.52 -78.23,-183.81 -174.73,-183.81 -58.67,0 -110.59,30.42 -142.28,77.09 51.11,151.75 140.67,222.71 250.58,250.98 40.46,-33.67 66.43,-85.77 66.43,-144.26z"/>
   <path class="fil8" d="M409.82 3493.79c-23.19,199.17 46.58,361.98 293.9,455.29 74.72,-48.23 124.18,-132.23 124.18,-227.78 0,-149.63 -121.29,-270.92 -270.92,-270.92 -54.26,0 -104.79,15.95 -147.16,43.41z"/>
   <path class="fil8" d="M929 4131.79c-26.58,0 -51.15,9.01 -71.12,24.28 -0.15,93.19 25.64,177.99 128.37,215.31 37.99,-21.49 63.81,-63.69 63.81,-112.24 0,-70.33 -54.2,-127.35 -121.06,-127.35z"/>
  </g>
  <path class="fil11" d="M6036.59 7433.76l-1719.49 -2.53c-143.77,128.76 -126.61,282.59 -24.31,390.18l1898.77 -1.04c117.3,-106.71 140.77,-261.16 -9.16,-386.4l-145.81 -0.21z"/>
  <path class="fil0" d="M4535.92 6060.92c915.27,-304.34 757.61,-334.87 -32.31,-204.06 -131.86,32.06 -108.83,239.01 32.31,204.06z"/>
  <path class="fil1" d="M8923.46 7944.32c-10,242.88 -280.47,329.73 -470,248.64l0.21 169.08 690.33 -0.88 0 -2841.64 -177.5 0 -43.04 0 0 898.68 0 1526.12z"/>
  <g id="_1706207735824">
   <polygon class="fil5" points="8272.58,5586.98 8272.58,6307.51 8272.58,6418.2 8608.33,6418.2 8860.78,6418.2 8923.46,6418.2 8923.46,5519.52 8373.43,5519.52 8273.85,5519.52 8272.58,5519.52 "/>
   <path class="fil5" d="M8273.85 5379.78l649.61 -2.34 0 -57.89c87.34,-1.81 86.04,-150.72 0,-148.12l-649.61 0c-95.01,11.96 -79.61,139.67 0,141.51l0 66.84z"/>
  </g>
  <g id="_1706207735728">
   <polygon class="fil5" points="7388.87,6291.15 8039.75,6303.2 8039.75,5586.98 7388.87,5586.98 "/>
   <path class="fil5" d="M7390.14 5382.97l649.61 -2.34 0 -61.08c87.34,-1.81 86.04,-150.72 0,-148.12l-370.79 0 -278.82 0c-95.01,11.96 -79.61,139.67 0,141.51l0 70.03z"/>
   <polygon class="fil5" points="8039.75,5519.52 7390.14,5519.52 7388.87,5519.52 7388.87,5586.98 8039.75,5586.98 "/>
   <polygon class="fil5" points="8039.75,6303.2 7388.87,6291.15 7388.87,6427.02 7747.58,6427.02 7998.93,6427.02 8039.75,6427.02 "/>
  </g>
  <g id="_1706207733952">
   <path class="fil12" d="M7747.58 8177.31l0 -1750.29 -358.71 0 0 1517.3c35.28,377.55 635.88,364.19 650.88,0l0 -256.11 -40.82 0 0 285.58c-41.89,92.09 -110.25,181.98 -251.35,203.52z"/>
   <polygon class="fil12" points="7998.93,7392.76 7998.93,7688.21 8039.75,7688.21 8039.75,7392.76 "/>
   <polygon class="fil12" points="7998.93,7392.76 8039.75,7392.76 8039.75,7095.1 7998.93,7095.1 "/>
   <polygon class="fil12" points="7998.93,6651.91 8039.75,6651.91 8039.75,6504.18 7998.93,6504.18 "/>
   <polygon class="fil12" points="7998.93,6504.18 8039.75,6504.18 8039.75,6427.02 7998.93,6427.02 "/>
   <polygon class="fil12" points="8039.75,6651.91 7998.93,6651.91 7998.93,6801.84 8039.75,6801.84 "/>
   <polygon class="fil12" points="8039.75,6801.84 7998.93,6801.84 7998.93,7095.1 8039.75,7095.1 "/>
  </g>
  <g id="_1706207733328">
   <path class="fil13" d="M5938.19 6368.52l98.4 1065.24 145.81 0.21c149.93,125.24 126.46,279.69 9.16,386.4 6.21,53.31 41.51,84.16 132.39,93.82 250.07,40.1 402.62,210.88 480.3,447.75l140.2 0 0 -2074.12c-366.42,-2.86 -861.83,-14.18 -1104.48,-9.89 84.55,26.89 65.48,60.39 98.22,90.59z"/>
   <path class="fil13" d="M8039.75 7944.32c-15,364.19 -615.6,377.55 -650.88,0l0 -1517.3 0 -135.87 -307.5 -5.69 -1.98 2078.34 1374.28 -1.76 -0.21 -169.08c-94.66,-40.5 -169.13,-122.88 -180.88,-248.64l0 -1526.12 0 -110.69 -232.83 -4.31 0 123.82 0 77.16 0 147.73 0 149.93 0 293.26 0 297.66 0 295.45 0 256.11z"/>
  </g>
  <g id="_1706207732512">
   <path class="fil14" d="M6407.34 5589.17c-392.22,-10.75 -727.15,-18.77 -733.79,84.66 -18,280.28 -1.43,395.95 -8.15,548.37 -2.38,53.94 48.87,159.35 154.95,69.75 5.96,-5.03 11.31,-13.87 19.62,-14.02 242.65,-4.29 738.06,7.03 1104.48,9.89l0 -692.33c-174.3,3.85 -361.45,-1.51 -537.11,-6.32z"/>
   <polygon class="fil14" points="7082.03,5586.98 7081.36,6285.46 7388.87,6291.15 7388.87,5586.98 "/>
   <polygon class="fil14" points="8039.75,5586.98 8039.75,6303.2 8272.58,6307.51 8272.58,5586.98 "/>
  </g>
  <g id="_1706207733568">
   <path class="fil15" d="M7338.23 5101.44c-279.43,61.16 -505.93,272.23 -930.89,487.73 175.66,4.81 362.81,10.17 537.11,6.32l0 -52.15c-241.06,7.54 -211.88,-164.99 1.27,-158.76l444.42 -1.61 0 -70.03c-79.61,-1.84 -95.01,-129.55 0,-141.51l278.82 0 -112.45 -76.62 -22.07 -372.66c574.27,-361.25 802.41,-1064.29 775.04,-1092.81 0,0 -421.28,779 -854.41,938.47 -518.9,-970.78 -647.57,-1196.99 -962.49,-1523.83 -127.65,-132.48 222.63,186.41 762.8,1504.93 128.9,314.65 95.54,468.84 82.85,552.53z"/>
   <polygon class="fil15" points="7388.87,5519.52 7082.04,5519.52 7082.04,5577.73 7082.03,5586.98 7388.87,5586.98 "/>
   <polygon class="fil15" points="8039.75,5519.52 8039.75,5586.98 8272.58,5586.98 8272.58,5519.52 "/>
  </g>
  <path class="fil10 str0" d="M4536.29 6063.28l2.85 18c22.5,99.3 72.6,247.15 164.64,241.69 222.28,-13.19 455.56,-84.25 648.57,-126.86 112.82,-24.91 112.31,-112.93 81.08,-300.04m-41 -210.28l-493.46 -2530.81c15.29,-111.64 49.49,-300.47 -26.09,-284.11 -60.07,13 -801.69,149.25 -920.77,165.13 -86.11,11.49 -11.6,208.9 52.57,298.9l144.69 712.2c661.62,9.46 868.5,772.36 238.95,1081.68l115.77 731.11"/>
  <path class="fil10 str0" d="M4149.37 4047.1c-852.9,209.95 -487.77,1277.42 238.95,1081.68"/>
  <circle class="fil10 str0" cx="4204.54" cy="4606.94" r="187.85"/>
  <path class="fil10 str0" d="M4004.68 3334.9c-121.83,-22.64 -147.73,-96.06 -89.65,-213.96l1004 -190.3c105.21,91.72 107.55,167.87 -20.06,224.34l-894.29 179.92z"/>
  <path class="fil10 str0" d="M4535.92 6060.92c-141.14,34.95 -164.17,-172 -32.31,-204.06l888.4 -173.23c156.68,7.31 167.83,189.26 41.42,212.44l-897.51 164.85z"/>
  <polygon class="fil10 str0" points="4900.33,2363.25 3704.41,2596.08 3952.11,3036 4872.88,2870.87 "/>
  <path class="fil10 str0" d="M4107.03 5141.9c-693.34,586.34 -799.32,1818.26 -698.92,2187.64"/>
  <path class="fil16" d="M8272.58 6418.2l0 1526.12c11.75,125.76 86.22,208.14 180.88,248.64 189.53,81.09 460,-5.76 470,-248.64l0 -1526.12 -62.68 0 0 85.98 0 147.73 0 149.93 0 293.26 0 297.66 0 295.45 0 285.58c-41.89,92.09 -110.25,181.98 -251.35,203.52l-1.1 -1759.11 -335.75 0z"/>
  <path class="fil10 str0" d="M4292.79 7821.41c-102.3,-107.59 -119.46,-261.42 24.31,-390.18l1865.3 2.74c149.93,125.24 126.46,279.69 9.16,386.4"/>
  <path class="fil17" d="M232.72 4462l1045.85 0.04c69.07,5.22 107.69,59.58 121.09,124.46 4.88,23.64 6.39,48.69 4.79,73.14 -1.6,24.49 -6.35,48.55 -13.94,70.13 -18.9,53.73 -55.53,92.5 -106.3,88.26 -7.8,-0.65 -18.52,-2.08 -30.31,-3.63 -23.2,-3.07 -51.03,-6.75 -74.17,-6.39 -24,0.38 -42.74,4.87 -42.52,19.21 3.13,195.08 5.23,348.7 7.06,483.25 3.5,257.55 6.07,445.28 13.24,723.9 647.37,188.4 1021.89,533.75 1185.14,924.59 95.98,229.78 118.89,475.25 81.3,713.76 -37.57,238.32 -135.56,469.7 -281.41,671.51 -280.31,387.89 -737.58,666.94 -1282.66,676.95 -21.49,0.39 -44.38,0.42 -67.35,0.14 -24.13,-0.29 -48.24,-0.92 -70.84,-1.81 -257.69,-10.23 -500.22,-54.15 -721.69,-124.49l0 -20.9c221.42,70.91 464.24,115.22 722.47,125.47 22.76,0.9 46.69,1.53 70.3,1.81 22.76,0.27 45.46,0.24 66.79,-0.14 538.3,-9.88 989.91,-285.52 1266.8,-668.67 144.07,-199.35 240.85,-427.77 277.91,-662.91 37.03,-234.95 14.47,-476.74 -80.06,-703.06 -161.67,-387.06 -534.1,-729.15 -1179.2,-915.18l-7.04 -2.04 -0.19 -7.3c-7.31,-282.41 -9.89,-471.34 -13.43,-731.39 -1.82,-134.31 -3.92,-287.65 -7.06,-483.17 -0.47,-29.78 26.95,-38.88 62.12,-39.45 24.66,-0.39 53.23,3.39 77.07,6.55 10.91,1.44 20.82,2.75 29.37,3.47 40.13,3.35 69.86,-29.54 85.84,-74.94 6.99,-19.83 11.35,-42.05 12.84,-64.79 1.49,-22.79 0.1,-46.06 -4.41,-67.9 -11.68,-56.53 -44.49,-103.86 -102.57,-108.48l-1044.83 0 0 -20zm-232.72 1689.38c122.85,-43.25 255.31,-83.15 397.87,-119.2l4.84 19.38c-144.52,36.54 -278.62,77.02 -402.71,120.94l0 -21.12z"/>
  <circle class="fil10 str0" cx="2979.72" cy="7055.47" r="123.03"/>
  <polyline class="fil10 str0" points="6804.25,8361.94 6944.45,8361.94 6944.45,5543.34 "/>
  <polygon class="fil17" points="6850.4,8551.33 9134,8551.33 9134,8371.13 7069.42,8373.77 7072.08,5577.73 7092,5577.73 7089.36,8353.83 9144,8351.19 9144,8571.33 6850.4,8571.33 "/>
  <path class="fil17" d="M7072.07 5586.98l0.01 -77.46 2061.92 0 0 -122.88 -2188.55 7.9c-75.16,-2.19 -125.91,18.18 -148.47,44.43 -7.97,9.28 -12.2,19.16 -12.44,28.73 -0.23,9.4 3.38,18.87 11.04,27.52 20.74,23.43 69,40.64 148.6,38.16l0.54 19.92c-86.19,2.69 -139.83,-17.51 -164.06,-44.88 -11.14,-12.59 -16.4,-26.77 -16.04,-41.18 0.35,-14.24 6.19,-28.43 17.2,-41.23 26,-30.25 82.37,-53.76 164.14,-51.39l2198.04 -7.94 0 162.84 -2052 0 -0.01 57.46 -19.92 0z"/>
  <g id="_1706207727424">
   <path class="fil10 str0" d="M7388.87 5519.52l0 2424.8c35.28,377.55 635.88,364.19 650.88,0l0 -2424.8"/>
   <path class="fil10 str0" d="M8039.75 5519.52l0 -199.97c87.34,-1.81 86.04,-150.72 0,-148.12l-649.61 0c-95.01,11.96 -79.61,139.67 0,141.51l0 206.58"/>
  </g>
  <g id="_1706207726032">
   <path class="fil10 str0" d="M8272.58 5519.52l0 2424.8c35.28,377.55 635.88,364.19 650.88,0l0 -2424.8"/>
   <path class="fil10 str0" d="M8923.46 5519.52l0 -199.97c87.34,-1.81 86.04,-150.72 0,-148.12l-649.61 0c-95.01,11.96 -79.61,139.67 0,141.51l0 206.58"/>
  </g>
  <path class="fil10 str0" d="M248.16 4472c-169.74,17.69 -181.77,316.7 34.67,318.28 41.95,0.3 114.78,-9.5 114.47,36.06 -2.34,339.73 4.1,888.09 2.99,1215.53"/>
  <path class="fil17" d="M3.59 7353.15c138.36,53.37 313.74,157.41 484.95,258.97 199.1,118.11 392.61,232.91 513.09,259.35 198.06,43.42 472.13,0 734.85,-92.92 274.04,-96.92 535.3,-247.57 684.91,-409.58l14.68 13.52c-151.8,164.39 -416.1,316.96 -692.95,414.88 -265.92,94.05 -543.94,137.87 -745.71,93.64 -123.59,-27.12 -318.5,-142.75 -519.03,-261.71 -169.07,-100.3 -342.23,-203.01 -478.38,-256.15l0 -10.7 3.59 -9.3z"/>
  <circle class="fil10 str0" cx="563.11" cy="8546.49" r="211.67"/>
  <path class="fil17" d="M-0 7832.84c14.81,9.12 28.46,19.93 40.7,32.16 40.16,40.17 64.97,95.58 64.97,156.73 0,61.15 -24.81,116.57 -64.93,156.7 -12.25,12.25 -25.92,23.07 -40.74,32.19l0 -23.87c9.51,-6.69 18.41,-14.18 26.6,-22.38 36.51,-36.5 59.07,-86.93 59.07,-142.64 0,-55.7 -22.56,-106.13 -59.05,-142.61 -8.2,-8.2 -17.11,-15.7 -26.62,-22.4l0 -23.88z"/>
  <path class="fil17" d="M-0 7916.55l2.34 2.29c27.74,27.74 44.91,66.09 44.91,108.41 0,42.3 -17.17,80.63 -44.93,108.39l-2.32 2.27 0 -29.86c17.1,-22.4 27.25,-50.41 27.25,-80.8 0,-30.36 -10.16,-58.36 -27.25,-80.77l0 -29.93z"/>
  <path class="fil17" d="M9.14 8194.83c63.27,144.43 171.48,282.03 313.6,411.84 154.78,141.36 349.76,273.43 570.73,395.01l-9.6 17.5c-222.31,-122.32 -418.58,-255.29 -574.57,-397.75 -137.5,-125.59 -243.84,-258.67 -309.3,-398.47l0 -24.15 9.14 -3.98z"/>
  <path class="fil10 str0" d="M2070.1 7641.16c8,182.07 -0.43,236.78 -45.35,332.86"/>
  <circle class="fil10 str0" cx="1185.84" cy="7056.17" r="176.24"/>
  <circle class="fil10 str0" cx="1194.1" cy="7060.76" r="119.33"/>
  <path class="fil17" d="M39.3 6543.61c51.39,0 97.95,20.86 131.65,54.55 33.73,33.74 54.59,80.3 54.59,131.69 0,51.43 -20.86,98 -54.55,131.69 -33.74,33.69 -80.3,54.55 -131.69,54.55 -13.48,0 -26.63,-1.43 -39.3,-4.16l0 -20.52c12.6,3.06 25.76,4.68 39.3,4.68 45.91,0 87.49,-18.61 117.57,-48.67 30.05,-30.09 48.67,-71.67 48.67,-117.57 0,-45.91 -18.61,-87.49 -48.67,-117.57 -30.08,-30.06 -71.66,-48.67 -117.57,-48.67 -13.54,0 -26.7,1.62 -39.3,4.68l0 -20.52c12.67,-2.73 25.82,-4.16 39.3,-4.16z"/>
  <path class="fil17" d="M47.56 6605.11c35.68,0 68.02,14.49 91.42,37.88 23.43,23.44 37.92,55.77 37.92,91.45 0,35.69 -14.49,68.02 -37.88,91.42 -23.44,23.43 -55.78,37.92 -91.46,37.92 -16.79,0 -32.84,-3.22 -47.56,-9.05l0 -21.79c14.38,6.95 30.52,10.84 47.56,10.84 30.2,0 57.56,-12.23 77.34,-32 19.77,-19.78 32,-47.13 32,-77.34 0,-30.2 -12.23,-57.55 -32,-77.33 -19.78,-19.77 -47.14,-32 -77.34,-32 -17.04,0 -33.18,3.89 -47.56,10.84l0 -21.8c14.73,-5.83 30.77,-9.04 47.56,-9.04z"/>
  <path class="fil17" d="M371.74 6053.42c-38.8,-48.3 -71.67,-92.72 -101.26,-132.73 -94.79,-128.15 -155.76,-210.53 -270.48,-227.01l0 -10.08 1.37 -9.88c123.92,17.16 186.92,102.33 285.13,235.09 29.49,39.87 62.25,84.16 100.78,132.11l-15.54 12.5z"/>
  <path class="fil17" d="M393.49 5931.12c-28.75,-27.6 -57.69,-59.4 -87.26,-91.91 -93.41,-102.68 -193.62,-212.81 -305.96,-209.59l-0.27 -9.96 0 -9.96c121.38,-3.31 224.69,110.21 320.99,216.07 29.43,32.36 58.24,64.02 86.32,90.97l-13.82 14.38z"/>
  <path class="fil17" d="M-0 357.39c100.57,-25.28 194.39,-65.99 280.28,-124.55 84.92,-57.89 162.19,-133.31 230.76,-228.61l12.27 0 8.13 5.78c-71,100.02 -151.37,178.95 -239.9,239.31 -88.6,60.4 -185.39,102.24 -289.16,128.05l-2.38 -9.69 0 -10.29z"/>
  <path class="fil18" d="M7998.93 7973.79l0 -285.58 0 -295.45 0 -297.66 0 -293.26 0 -149.93 0 -147.73 0 -77.16 -251.35 0 0 1750.29c141.1,-21.54 209.46,-111.43 251.35,-203.52z"/>
  <path class="fil17" d="M438.09 10.91c-145.13,160.24 -290.56,242.19 -436.14,271.73l-1.95 -9.77 0 -10.18c138.87,-28.65 277.94,-106.82 417.23,-258.46l13.48 0 7.38 6.68z"/>
  <path class="fil17" d="M5384.03 4.23c111.02,154.5 242.65,271.27 383.55,350.73 161.1,90.84 334.43,133 503.01,127.17 168.38,-5.84 332.14,-59.64 474.28,-160.7 109.46,-77.82 206.14,-183.66 282.33,-317.2l11.44 0 8.67 4.88c-78.14,138.56 -177.83,248.2 -290.88,328.58 -145.37,103.36 -312.9,158.39 -485.22,164.36 -172.11,5.96 -349.02,-37.06 -513.39,-129.75 -145.19,-81.88 -280.59,-202.5 -394.19,-362.29l8.13 -5.78 12.27 0z"/>
  <path class="fil17" d="M7183.79 9.54c-135.9,215.72 -298.43,374.18 -472.97,476.7 -166.29,97.68 -343.49,144.59 -519.04,141.95 -175.62,-2.63 -349.51,-54.84 -509.1,-155.39 -164.46,-103.61 -313.78,-258.59 -434.16,-463.53l8.59 -5.04 11.57 0c118.17,199.56 264.12,350.58 424.62,451.69 156.47,98.58 326.82,149.77 498.72,152.35 171.96,2.59 345.65,-43.42 508.72,-139.21 170.42,-100.1 329.34,-254.61 462.8,-464.83l11.81 0 8.44 5.31z"/>
  <path class="fil10 str0" d="M6944.45 5595.49c-563.49,12.46 -1261.28,-71.41 -1270.9,78.34 -18,280.28 -1.43,395.95 -8.15,548.37 -2.38,53.94 48.87,159.35 154.95,69.75 5.96,-5.03 11.31,-13.87 19.62,-14.02 242.65,-4.29 738.06,7.03 1104.48,9.89"/>
  <line class="fil10 str0" x1="7081.36" y1="6285.46" x2="7388.87" y2= "6291.15" />
  <line class="fil10 str0" x1="7081.36" y1="5586.98" x2="7388.87" y2= "5586.98" />
  <path class="fil10 str0" d="M6407.34 5589.17c424.96,-215.5 651.46,-426.57 930.89,-487.73"/>
  <line class="fil10 str0" x1="7556.51" y1="5094.81" x2="7668.96" y2= "5171.43" />
  <path class="fil10 str0" d="M7338.23 5101.44c12.69,-83.69 46.05,-237.88 -82.85,-552.53 -540.17,-1318.52 -890.45,-1637.41 -762.8,-1504.93 314.92,326.84 443.59,553.05 962.49,1523.83 433.13,-159.47 854.41,-938.47 854.41,-938.47 27.37,28.52 -200.77,731.56 -775.04,1092.81l22.07 372.66"/>
  <circle class="fil10 str0" cx="556.98" cy="3721.3" r="270.92"/>
  <circle class="fil10 str0" cx="1027.59" cy="3277.18" r="172.94"/>
  <circle class="fil10 str0" cx="1027.59" cy="3277.18" r="97.9"/>
  <ellipse class="fil10 str0" cx="641.36" cy="5096.13" rx="174.73" ry="183.81"/>
  <ellipse class="fil10 str0" cx="929" cy="4259.14" rx="121.06" ry="127.35"/>
  <path class="fil19 str0" d="M7468.93 2597.14c-84.74,44.39 -148.35,121.52 -154.69,186.04 -40.48,411.54 -319.07,447.32 -608.19,285.8 118.81,-294.55 403.01,-447.77 762.88,-471.84z"/>
  <path class="fil20" d="M8608.33 6418.2l1.1 1759.11c141.1,-21.54 209.46,-111.43 251.35,-203.52l0 -285.58 0 -295.45 0 -297.66 0 -293.26 0 -149.93 0 -147.73 0 -85.98 -252.45 0z"/>
  <path class="fil21 str0" d="M7509.28 2562.28c15.17,-79.93 -984.26,-149.81 -835.11,474.74 39.65,-228.16 440.58,-514.79 835.11,-474.74z"/>
  <line class="fil10 str0" x1="7388.87" y1="6427.02" x2="8039.75" y2= "6427.02" />
  <line class="fil10 str0" x1="8272.58" y1="6418.2" x2="8923.46" y2= "6418.2" />
  <line class="fil10 str1" x1="7906.48" y1="6504.18" x2="8039.75" y2= "6504.18" />
  <line class="fil10 str1" x1="7820.49" y1="6651.91" x2="8039.75" y2= "6651.91" />
  <line class="fil10 str1" x1="7906.48" y1="6801.84" x2="8039.75" y2= "6801.84" />
  <line class="fil10 str1" x1="7917.5" y1="7095.1" x2="8039.75" y2= "7095.1" />
  <line class="fil10 str1" x1="7915.3" y1="7392.76" x2="8039.75" y2= "7392.76" />
  <line class="fil10 str1" x1="7935.14" y1="7688.21" x2="8039.75" y2= "7688.21" />
  <path class="fil19" d="M9144 4076.61c-451.86,303.25 -681.38,210.5 -756.92,-156.54l756.92 -134.5 0 291.04z"/>
  <path class="fil17" d="M9144 4088.59c-225.72,150.46 -396.96,202.39 -522,170.8 -127.49,-32.21 -206.11,-149.84 -244.69,-337.33l-2.07 -10.03 768.76 -136.6 0 313.16zm-517.16 151.42c119.73,30.25 286.01,-21.09 507.16,-168.71l0 -273.81 -735.03 130.61c37.62,173.69 111,282.38 227.87,311.91z"/>
  <path class="fil21" d="M9144 3752.5c-271.59,-46.55 -514,14.21 -750.31,114.65 145.29,-301.87 393.37,-364.72 750.31,-178.6l0 63.95z"/>
  <path class="fil17" d="M9142.32 3762.34c-134.55,-23.06 -261.95,-19.53 -384.98,2.2 -123.26,21.78 -242.26,61.86 -359.74,111.79l-24.39 10.37 11.5 -23.89c74,-153.74 174.56,-246.73 302.43,-277.65 126.12,-30.5 278.17,-0.16 456.86,92.18l0 85.29 -1.68 -0.29zm-388.42 -17.48c121.58,-21.47 247.4,-25.46 380.1,-4.14l0 -46.13c-173.88,-89.71 -321.04,-119.34 -442.18,-90.05 -115,27.81 -207.18,109.18 -277.13,243 110.74,-45.64 223.04,-82.15 339.21,-102.68z"/>
  <path class="fil21 str0" d="M7655.05 3062.38c56.76,136.36 75.31,247.36 54.44,343.47 -55.19,254.16 139.45,414.27 406.38,324.61 -20.14,-297.77 -199.61,-499.7 -460.82,-668.08z"/>
  <path class="fil19 str0" d="M7704.02 3049.33c520.73,94.81 591.92,366.12 451.54,621.59 -32.14,-293.15 -195.95,-487.21 -451.54,-621.59z"/>
  <path class="fil19" d="M9144 2599.37c-105.3,116.24 -165.98,206.18 -160.23,322.57 26.76,542.03 -397.38,557.17 -620.95,396.21 127.73,-400.01 400.62,-624.5 781.18,-718.78z"/>
  <path class="fil17" d="M9144 2614.23c-48.63,54.22 -87.09,102.75 -112.97,151.06 -26.76,49.97 -40.07,99.93 -37.3,156.18 8.15,165.16 -25.2,282.52 -82.05,361.48 -32.08,44.57 -71.58,76.89 -115.29,98.66 -43.59,21.7 -91.42,32.93 -140.28,35.34 -105.47,5.2 -215.92,-30.82 -299.11,-90.71l-5.87 -4.22 2.2 -6.88c64.43,-201.78 165.56,-359.37 298.63,-478.45 133.04,-119.06 297.84,-199.49 489.66,-247.01l2.38 -0.59 0 25.14zm-130.55 141.68c24.08,-44.96 58.39,-89.74 101.23,-138.62 -175.21,47.56 -326.34,124.08 -449.44,234.24 -128.91,115.37 -227.31,267.81 -290.69,462.7 79.02,54.9 182.13,87.65 280.62,82.8 46.1,-2.28 91.23,-12.86 132.32,-33.32 40.97,-20.4 77.98,-50.68 108.01,-92.4 54.36,-75.51 86.21,-188.67 78.31,-348.9 -2.96,-60.12 11.19,-113.36 39.64,-166.5z"/>
  <path class="fil21" d="M9144 2564.08c-510.03,-90.72 -1028.16,372.94 -825.28,727.61 100.53,-336.2 369.73,-613.35 825.28,-727.61z"/>
  <path class="fil17" d="M9094.26 2567.03c-175.43,-19.31 -349.13,25.35 -490.54,106.23 -83.44,47.73 -155.6,108.03 -210.16,175.14 -54.3,66.78 -91.22,140.37 -104.49,215 -12.07,67.9 -4.55,136.82 27.27,202.4 54.19,-167 150.37,-318.78 290.68,-442.49 126.21,-111.26 288.12,-199.81 487.24,-256.28zm49.74 -13.09l0 20.45c-216.55,54.66 -390.53,146.44 -523.78,263.92 -143.82,126.81 -240.33,283.67 -291.93,456.23l-6.68 22.33 -11.56 -20.22c-43.52,-76.09 -54.81,-157.07 -40.66,-236.69 13.88,-78.04 52.28,-154.74 108.71,-224.14 56.14,-69.06 130.21,-131 215.7,-179.9 157.59,-90.14 354.41,-136.34 550.2,-101.98z"/>
  <path class="fil21 str0" d="M5628.79 3097.68c184.34,57.79 248.23,140.61 301.14,237.92 169.88,312.43 431.3,268.99 585.22,39.9 -196.23,-299.87 -681.31,-392.46 -886.36,-277.82z"/>
  <path class="fil19 str0" d="M5692.08 3042.29c469.64,-276.34 833,-2.3 832.99,279.19 -159.85,-206.53 -463.69,-371.41 -832.99,-279.19z"/>
  <path class="fil19 str0" d="M6305.69 1285.3c-9.32,249.62 54.38,323.19 199.05,476.43 308.23,326.48 248.48,784.98 -168.19,945.7 -186.34,-262.89 -298.38,-1070.83 -30.86,-1422.13z"/>
  <path class="fil21 str0" d="M6250.56 2700.82c-526.02,-176.27 -548.47,-801.21 -13.22,-1411.11 -330.73,642.35 -145.53,1068.63 13.22,1411.11z"/>
  <path class="fil10 str0" d="M5839.97 6277.93c84.55,26.89 65.48,60.39 98.22,90.59l98.4 1065.23"/>
  <line class="fil10 str2" x1="1118.91" y1="3891.41" x2="1037.33" y2= "3957.56" />
  <line class="fil10 str2" x1="1262.22" y1="3770.14" x2="1361.71" y2= "3688.22" />
  <line class="fil10 str2" x1="1021.89" y1="3690.77" x2="1132.13" y2= "3763.53" />
  <line class="fil10 str2" x1="1260.02" y1="3893.62" x2="1374.67" y2= "3968.58" />
  <line class="fil10 str0" x1="8453.46" y1="8192.96" x2="8453.67" y2= "8362.04" />
  <path class="fil22" d="M7081.37 6285.46l0.66 -698.48 0.01 -67.46 306.83 0 1.27 0 0 -136.55 -444.42 1.61c-213.15,-6.23 -242.33,166.3 -1.27,158.76l0 52.15 0 692.33 0 2074.12 -140.2 0c20.42,62.29 35.67,129.14 46.15,199.39l2293.6 0 0 -200.17 -690.33 0.88 -1374.28 1.76 1.98 -2078.34z"/>
  <polygon class="fil22" points="7310.68,5519.52 8039.75,5519.52 8039.75,5380.63 7310.68,5382.97 "/>
  <polygon class="fil22" points="7998.6,5380.63 7998.6,5519.52 8961.25,5519.52 8966.5,5519.52 8966.5,5379.78 "/>
  <polygon class="fil22" points="8273.85,5379.78 8273.85,5519.52 8923.46,5519.52 8923.46,5377.44 "/>
  <polygon class="fil22" points="8923.46,5377.44 8923.46,5519.52 9144,5519.52 9144,5376.64 "/>
  <line class="fil10 str1" x1="8783.85" y1="6504.18" x2="8917.12" y2= "6504.18" />
  <line class="fil10 str1" x1="8697.86" y1="6651.91" x2="8917.12" y2= "6651.91" />
  <line class="fil10 str1" x1="8783.85" y1="6801.84" x2="8917.12" y2= "6801.84" />
  <line class="fil10 str1" x1="8794.87" y1="7095.1" x2="8917.12" y2= "7095.1" />
  <line class="fil10 str1" x1="8792.67" y1="7392.76" x2="8917.12" y2= "7392.76" />
  <line class="fil10 str1" x1="8812.51" y1="7688.21" x2="8917.12" y2= "7688.21" />
  <path class="fil10 str0" d="M545.21 6507.17c26.42,202.78 129.83,343.98 332.65,405.68"/>
  <line class="fil10 str0" x1="8039.75" y1="5586.98" x2="8272.58" y2= "5586.98" />
  <line class="fil10 str0" x1="8039.75" y1="6303.2" x2="8272.58" y2= "6307.51" />
  <path class="fil10 str0" d="M499.08 4989.41c51.11,151.75 140.67,222.71 250.58,250.98"/>
  <path class="fil10 str0" d="M409.82 3493.79c-23.19,199.17 46.58,361.98 293.9,455.29"/>
  <path class="fil10 str0" d="M857.88 4156.07c-0.15,93.19 25.64,177.99 128.37,215.31"/>
  <path class="fil17" d="M5.62 7374.91l-5.62 -0.46 0 -20.05 7.18 0.59 -1.56 19.92zm-5.62 -1209.43l8.48 5.27 -8.48 13.65 0 -18.92z"/>
  <path class="fil0" d="M2024.75 7974.02c-265,184.67 -340.68,485.29 -333.17,784.56 601.91,-50.61 1033.14,-237.39 656.43,-826.72l-262.92 4.06c-21.12,12.07 -41.22,24.79 -60.34,38.1z"/>
  <line class="fil10 str0" x1="3747.09" y1="2671.88" x2="4895.75" y2= "2447.78" />
  <polygon class="fil0" points="4895.75,2447.78 3747.09,2671.88 3952.11,3036 4872.88,2870.87 "/>
  <path class="fil0" d="M4919.03 2930.64l-1004 190.3c9.21,67.91 51.28,160.14 89.65,213.96l894.29 -179.92c9.22,-67.35 25.33,-162.8 20.06,-224.34z"/>
  <path class="fil0" d="M4004.68 3334.9c17.79,-69.55 10.9,-171.61 -89.65,-213.96 -58.08,117.9 -32.18,191.32 89.65,213.96z"/>
  <path class="fil0" d="M4919.03 2930.64c-113.04,63.13 -113.06,158.37 -20.06,224.34 127.61,-56.47 125.27,-132.62 20.06,-224.34z"/>
  <path class="fil3" d="M5257.11 4.23c472.91,805.13 1393.86,832.37 1918.24,0l-136.71 0c-364.06,645.56 -1199.92,656.8 -1666.88,0l-114.65 0z"/>
  <circle class="fil3" cx="6094.65" cy="245.6" r="35.28"/>
  <circle class="fil3" cx="6385.69" cy="289.69" r="33.07"/>
  <circle class="fil3" cx="6620.51" cy="209.21" r="16.53"/>
  <circle class="fil3" cx="6452.94" cy="92.36" r="27.56"/>
  <circle class="fil3" cx="6129.93" cy="51.57" r="17.64"/>
  <circle class="fil3" cx="5987.71" cy="79.13" r="27.56"/>
  <circle class="fil3" cx="6777.06" cy="127.63" r="38.58"/>
  <circle class="fil3" cx="6273.24" cy="128.73" r="35.27"/>
  <circle class="fil3" cx="6587.44" cy="310.64" r="34.17"/>
  <circle class="fil3" cx="6943.53" cy="49.36" r="28.66"/>
  <circle class="fil3" cx="6661.3" cy="82.43" r="26.45"/>
  <circle class="fil3" cx="6495.94" cy="186.06" r="28.66"/>
  <circle class="fil3" cx="5612.88" cy="63.69" r="36.38"/>
  <circle class="fil3" cx="5757.3" cy="212.52" r="35.27"/>
  <path class="fil10 str0" d="M1701.65 8906.39l582.09 -2.65 18.52 -248.71 3899.98 -15.88 37.04 275.17 627.04 -5.2c21.17,-495.65 -124.32,-927.9 -542.37,-994.93 -90.88,-9.66 -126.18,-40.51 -132.39,-93.82l-1898.77 1.04c-49.39,22.93 -87.73,44.71 -96.1,90.13l-406.04 1.87c-197.64,-260.42 -311.9,-443.41 -382.54,-583.87"/>
  <path class="fil10 str0" d="M2372.39 7931.48l-287.3 4.44c-362.42,207.07 -423.19,604.65 -383.44,970.47"/>
  <path class="fil10 str0" d="M3689.71 4780.51c-919.37,415.76 -1145.53,2056.55 -1318.77,3160.22"/>
  <path class="fil10 str0" d="M3408.11 7329.54c-242.44,-584.95 -455.07,-498.97 -532.45,-463.72 -93.48,42.57 -163.8,186.3 -503.27,1065.66"/>
 </g>
</svg>
